<mxfile host="app.diagrams.net" agent="Mozilla/5.0 (Macintosh; Intel Mac OS X 10_15_7) AppleWebKit/537.36 (KHTML, like Gecko) Chrome/133.0.0.0 Safari/537.36" version="26.0.16">
  <diagram name="Page-1" id="mhcCw9Y-WHJ9YSm6l1Py">
    <mxGraphModel grid="1" page="1" gridSize="10" guides="1" tooltips="1" connect="1" arrows="1" fold="1" pageScale="1" pageWidth="827" pageHeight="1169" math="0" shadow="0">
      <root>
        <mxCell id="0" />
        <mxCell id="1" parent="0" />
        <mxCell id="g5N9hE3hsBz0X4arDoTH-1" value="eReferral and eDischage" style="swimlane;html=1;childLayout=stackLayout;resizeParent=1;resizeParentMax=0;horizontal=1;startSize=20;horizontalStack=0;whiteSpace=wrap;" vertex="1" parent="1">
          <mxGeometry x="40" y="40" width="1340" height="780" as="geometry" />
        </mxCell>
        <mxCell id="g5N9hE3hsBz0X4arDoTH-2" value="Referral Initiator" style="swimlane;html=1;startSize=20;horizontal=0;" vertex="1" parent="g5N9hE3hsBz0X4arDoTH-1">
          <mxGeometry y="20" width="1340" height="380" as="geometry" />
        </mxCell>
        <mxCell id="g5N9hE3hsBz0X4arDoTH-3" value="" style="edgeStyle=orthogonalEdgeStyle;rounded=0;orthogonalLoop=1;jettySize=auto;html=1;entryX=0;entryY=0.5;entryDx=0;entryDy=0;entryPerimeter=0;" edge="1" parent="g5N9hE3hsBz0X4arDoTH-2" source="g5N9hE3hsBz0X4arDoTH-4" target="g5N9hE3hsBz0X4arDoTH-6">
          <mxGeometry relative="1" as="geometry">
            <mxPoint x="155" y="160" as="targetPoint" />
          </mxGeometry>
        </mxCell>
        <mxCell id="g5N9hE3hsBz0X4arDoTH-4" value="" style="points=[[0.145,0.145,0],[0.5,0,0],[0.855,0.145,0],[1,0.5,0],[0.855,0.855,0],[0.5,1,0],[0.145,0.855,0],[0,0.5,0]];shape=mxgraph.bpmn.event;html=1;verticalLabelPosition=bottom;labelBackgroundColor=#ffffff;verticalAlign=top;align=center;perimeter=ellipsePerimeter;outlineConnect=0;aspect=fixed;outline=standard;symbol=general;" vertex="1" parent="g5N9hE3hsBz0X4arDoTH-2">
          <mxGeometry x="60" y="135" width="50" height="50" as="geometry" />
        </mxCell>
        <mxCell id="g5N9hE3hsBz0X4arDoTH-5" style="edgeStyle=orthogonalEdgeStyle;rounded=0;orthogonalLoop=1;jettySize=auto;html=1;" edge="1" parent="g5N9hE3hsBz0X4arDoTH-2" source="g5N9hE3hsBz0X4arDoTH-6" target="g5N9hE3hsBz0X4arDoTH-8">
          <mxGeometry relative="1" as="geometry" />
        </mxCell>
        <mxCell id="g5N9hE3hsBz0X4arDoTH-6" value="Select Referral Form" style="points=[[0.25,0,0],[0.5,0,0],[0.75,0,0],[1,0.25,0],[1,0.5,0],[1,0.75,0],[0.75,1,0],[0.5,1,0],[0.25,1,0],[0,0.75,0],[0,0.5,0],[0,0.25,0]];shape=mxgraph.bpmn.task2;whiteSpace=wrap;rectStyle=rounded;size=10;html=1;container=1;expand=0;collapsible=0;taskMarker=user;" vertex="1" parent="g5N9hE3hsBz0X4arDoTH-2">
          <mxGeometry x="150" y="120" width="120" height="80" as="geometry" />
        </mxCell>
        <mxCell id="g5N9hE3hsBz0X4arDoTH-8" value="Complete&amp;nbsp; Referral Form" style="points=[[0.25,0,0],[0.5,0,0],[0.75,0,0],[1,0.25,0],[1,0.5,0],[1,0.75,0],[0.75,1,0],[0.5,1,0],[0.25,1,0],[0,0.75,0],[0,0.5,0],[0,0.25,0]];shape=mxgraph.bpmn.task2;whiteSpace=wrap;rectStyle=rounded;size=10;html=1;container=1;expand=0;collapsible=0;taskMarker=user;" vertex="1" parent="g5N9hE3hsBz0X4arDoTH-2">
          <mxGeometry x="320" y="120" width="120" height="80" as="geometry" />
        </mxCell>
        <mxCell id="g5N9hE3hsBz0X4arDoTH-9" value="Submit Referral" style="points=[[0.25,0,0],[0.5,0,0],[0.75,0,0],[1,0.25,0],[1,0.5,0],[1,0.75,0],[0.75,1,0],[0.5,1,0],[0.25,1,0],[0,0.75,0],[0,0.5,0],[0,0.25,0]];shape=mxgraph.bpmn.task2;whiteSpace=wrap;rectStyle=rounded;size=10;html=1;container=1;expand=0;collapsible=0;taskMarker=send;" vertex="1" parent="g5N9hE3hsBz0X4arDoTH-2">
          <mxGeometry x="320" y="240" width="120" height="80" as="geometry" />
        </mxCell>
        <mxCell id="g5N9hE3hsBz0X4arDoTH-10" style="edgeStyle=orthogonalEdgeStyle;rounded=0;orthogonalLoop=1;jettySize=auto;html=1;entryX=0.5;entryY=0;entryDx=0;entryDy=0;entryPerimeter=0;" edge="1" parent="g5N9hE3hsBz0X4arDoTH-2" source="g5N9hE3hsBz0X4arDoTH-8" target="g5N9hE3hsBz0X4arDoTH-9">
          <mxGeometry relative="1" as="geometry" />
        </mxCell>
        <mxCell id="g5N9hE3hsBz0X4arDoTH-11" value="Referral" style="shape=mxgraph.bpmn.data2;labelPosition=center;verticalLabelPosition=bottom;align=center;verticalAlign=top;size=15;html=1;bpmnTransferType=output;" vertex="1" parent="g5N9hE3hsBz0X4arDoTH-2">
          <mxGeometry x="440" y="30" width="40" height="60" as="geometry" />
        </mxCell>
        <mxCell id="g5N9hE3hsBz0X4arDoTH-12" style="edgeStyle=orthogonalEdgeStyle;rounded=0;orthogonalLoop=1;jettySize=auto;html=1;entryX=0;entryY=0.5;entryDx=0;entryDy=0;entryPerimeter=0;" edge="1" parent="g5N9hE3hsBz0X4arDoTH-2" source="g5N9hE3hsBz0X4arDoTH-8" target="g5N9hE3hsBz0X4arDoTH-11">
          <mxGeometry relative="1" as="geometry" />
        </mxCell>
        <mxCell id="g5N9hE3hsBz0X4arDoTH-19" value="Receive Letter" style="points=[[0.25,0,0],[0.5,0,0],[0.75,0,0],[1,0.25,0],[1,0.5,0],[1,0.75,0],[0.75,1,0],[0.5,1,0],[0.25,1,0],[0,0.75,0],[0,0.5,0],[0,0.25,0]];shape=mxgraph.bpmn.task2;whiteSpace=wrap;rectStyle=rounded;size=10;html=1;container=1;expand=0;collapsible=0;taskMarker=receive;" vertex="1" parent="g5N9hE3hsBz0X4arDoTH-2">
          <mxGeometry x="1000" y="120" width="120" height="80" as="geometry" />
        </mxCell>
        <mxCell id="g5N9hE3hsBz0X4arDoTH-20" value="" style="points=[[0.145,0.145,0],[0.5,0,0],[0.855,0.145,0],[1,0.5,0],[0.855,0.855,0],[0.5,1,0],[0.145,0.855,0],[0,0.5,0]];shape=mxgraph.bpmn.event;html=1;verticalLabelPosition=bottom;labelBackgroundColor=#ffffff;verticalAlign=top;align=center;perimeter=ellipsePerimeter;outlineConnect=0;aspect=fixed;outline=end;symbol=terminate;" vertex="1" parent="g5N9hE3hsBz0X4arDoTH-2">
          <mxGeometry x="1201" y="135" width="50" height="50" as="geometry" />
        </mxCell>
        <mxCell id="g5N9hE3hsBz0X4arDoTH-21" style="edgeStyle=orthogonalEdgeStyle;rounded=0;orthogonalLoop=1;jettySize=auto;html=1;" edge="1" parent="g5N9hE3hsBz0X4arDoTH-2" source="g5N9hE3hsBz0X4arDoTH-19" target="g5N9hE3hsBz0X4arDoTH-20">
          <mxGeometry relative="1" as="geometry" />
        </mxCell>
        <mxCell id="g5N9hE3hsBz0X4arDoTH-22" value="Referral Recipient" style="swimlane;html=1;startSize=20;horizontal=0;" vertex="1" parent="g5N9hE3hsBz0X4arDoTH-1">
          <mxGeometry y="400" width="1340" height="380" as="geometry" />
        </mxCell>
        <mxCell id="PTeG42SvYrZNoQo3uG_o-3" style="edgeStyle=orthogonalEdgeStyle;rounded=0;orthogonalLoop=1;jettySize=auto;html=1;" edge="1" parent="g5N9hE3hsBz0X4arDoTH-22" source="g5N9hE3hsBz0X4arDoTH-23" target="g5N9hE3hsBz0X4arDoTH-24">
          <mxGeometry relative="1" as="geometry" />
        </mxCell>
        <mxCell id="g5N9hE3hsBz0X4arDoTH-23" value="Receive Referral" style="points=[[0.25,0,0],[0.5,0,0],[0.75,0,0],[1,0.25,0],[1,0.5,0],[1,0.75,0],[0.75,1,0],[0.5,1,0],[0.25,1,0],[0,0.75,0],[0,0.5,0],[0,0.25,0]];shape=mxgraph.bpmn.task2;whiteSpace=wrap;rectStyle=rounded;size=10;html=1;container=1;expand=0;collapsible=0;taskMarker=receive;" vertex="1" parent="g5N9hE3hsBz0X4arDoTH-22">
          <mxGeometry x="320" y="160" width="120" height="80" as="geometry" />
        </mxCell>
        <mxCell id="g5N9hE3hsBz0X4arDoTH-24" value="Triage Referral" style="points=[[0.25,0,0],[0.5,0,0],[0.75,0,0],[1,0.25,0],[1,0.5,0],[1,0.75,0],[0.75,1,0],[0.5,1,0],[0.25,1,0],[0,0.75,0],[0,0.5,0],[0,0.25,0]];shape=mxgraph.bpmn.task2;whiteSpace=wrap;rectStyle=rounded;size=10;html=1;container=1;expand=0;collapsible=0;taskMarker=user;" vertex="1" parent="g5N9hE3hsBz0X4arDoTH-22">
          <mxGeometry x="490" y="160" width="120" height="80" as="geometry" />
        </mxCell>
        <mxCell id="g5N9hE3hsBz0X4arDoTH-25" style="edgeStyle=orthogonalEdgeStyle;rounded=0;orthogonalLoop=1;jettySize=auto;html=1;entryX=0;entryY=0.5;entryDx=0;entryDy=0;entryPerimeter=0;" edge="1" parent="g5N9hE3hsBz0X4arDoTH-22" source="g5N9hE3hsBz0X4arDoTH-24" target="g5N9hE3hsBz0X4arDoTH-26">
          <mxGeometry relative="1" as="geometry">
            <mxPoint x="780" y="200" as="sourcePoint" />
          </mxGeometry>
        </mxCell>
        <mxCell id="g5N9hE3hsBz0X4arDoTH-26" value="Perform Procedure or Provide Advice" style="points=[[0.25,0,0],[0.5,0,0],[0.75,0,0],[1,0.25,0],[1,0.5,0],[1,0.75,0],[0.75,1,0],[0.5,1,0],[0.25,1,0],[0,0.75,0],[0,0.5,0],[0,0.25,0]];shape=mxgraph.bpmn.task2;whiteSpace=wrap;rectStyle=rounded;size=10;html=1;container=1;expand=0;collapsible=0;taskMarker=user;" vertex="1" parent="g5N9hE3hsBz0X4arDoTH-22">
          <mxGeometry x="660" y="160" width="120" height="80" as="geometry" />
        </mxCell>
        <mxCell id="g5N9hE3hsBz0X4arDoTH-27" value="Prepare Documentation" style="points=[[0.25,0,0],[0.5,0,0],[0.75,0,0],[1,0.25,0],[1,0.5,0],[1,0.75,0],[0.75,1,0],[0.5,1,0],[0.25,1,0],[0,0.75,0],[0,0.5,0],[0,0.25,0]];shape=mxgraph.bpmn.task2;whiteSpace=wrap;rectStyle=rounded;size=10;html=1;container=1;expand=0;collapsible=0;taskMarker=user;" vertex="1" parent="g5N9hE3hsBz0X4arDoTH-22">
          <mxGeometry x="830" y="160" width="120" height="80" as="geometry" />
        </mxCell>
        <mxCell id="g5N9hE3hsBz0X4arDoTH-28" style="edgeStyle=orthogonalEdgeStyle;rounded=0;orthogonalLoop=1;jettySize=auto;html=1;entryX=0;entryY=0.5;entryDx=0;entryDy=0;entryPerimeter=0;" edge="1" parent="g5N9hE3hsBz0X4arDoTH-22" source="g5N9hE3hsBz0X4arDoTH-26" target="g5N9hE3hsBz0X4arDoTH-27">
          <mxGeometry relative="1" as="geometry" />
        </mxCell>
        <mxCell id="g5N9hE3hsBz0X4arDoTH-29" value="Send Discharge Report or Communication" style="points=[[0.25,0,0],[0.5,0,0],[0.75,0,0],[1,0.25,0],[1,0.5,0],[1,0.75,0],[0.75,1,0],[0.5,1,0],[0.25,1,0],[0,0.75,0],[0,0.5,0],[0,0.25,0]];shape=mxgraph.bpmn.task2;whiteSpace=wrap;rectStyle=rounded;size=10;html=1;container=1;expand=0;collapsible=0;taskMarker=send;" vertex="1" parent="g5N9hE3hsBz0X4arDoTH-22">
          <mxGeometry x="1000" y="160" width="120" height="80" as="geometry" />
        </mxCell>
        <mxCell id="g5N9hE3hsBz0X4arDoTH-30" style="edgeStyle=orthogonalEdgeStyle;rounded=0;orthogonalLoop=1;jettySize=auto;html=1;entryX=0;entryY=0.5;entryDx=0;entryDy=0;entryPerimeter=0;" edge="1" parent="g5N9hE3hsBz0X4arDoTH-22" source="g5N9hE3hsBz0X4arDoTH-27" target="g5N9hE3hsBz0X4arDoTH-29">
          <mxGeometry relative="1" as="geometry" />
        </mxCell>
        <mxCell id="g5N9hE3hsBz0X4arDoTH-31" value="Letter or Communication" style="shape=mxgraph.bpmn.data2;labelPosition=center;verticalLabelPosition=bottom;align=center;verticalAlign=top;size=15;html=1;bpmnTransferType=output;" vertex="1" parent="g5N9hE3hsBz0X4arDoTH-22">
          <mxGeometry x="960" y="270" width="40" height="60" as="geometry" />
        </mxCell>
        <mxCell id="g5N9hE3hsBz0X4arDoTH-32" style="edgeStyle=orthogonalEdgeStyle;rounded=0;orthogonalLoop=1;jettySize=auto;html=1;entryX=0;entryY=0.5;entryDx=0;entryDy=0;entryPerimeter=0;exitX=0.5;exitY=1;exitDx=0;exitDy=0;exitPerimeter=0;" edge="1" parent="g5N9hE3hsBz0X4arDoTH-22" source="g5N9hE3hsBz0X4arDoTH-27" target="g5N9hE3hsBz0X4arDoTH-31">
          <mxGeometry relative="1" as="geometry">
            <Array as="points">
              <mxPoint x="890" y="300" />
            </Array>
          </mxGeometry>
        </mxCell>
        <mxCell id="PTeG42SvYrZNoQo3uG_o-4" value="Accept or Reject" style="points=[[0.25,0,0],[0.5,0,0],[0.75,0,0],[1,0.25,0],[1,0.5,0],[1,0.75,0],[0.75,1,0],[0.5,1,0],[0.25,1,0],[0,0.75,0],[0,0.5,0],[0,0.25,0]];shape=mxgraph.bpmn.task2;whiteSpace=wrap;rectStyle=rounded;size=10;html=1;container=1;expand=0;collapsible=0;taskMarker=send;bpmnShapeType=task;" vertex="1" parent="g5N9hE3hsBz0X4arDoTH-22">
          <mxGeometry x="490" y="40" width="120" height="80" as="geometry" />
        </mxCell>
        <mxCell id="PTeG42SvYrZNoQo3uG_o-5" style="edgeStyle=orthogonalEdgeStyle;rounded=0;orthogonalLoop=1;jettySize=auto;html=1;entryX=0.5;entryY=1;entryDx=0;entryDy=0;entryPerimeter=0;" edge="1" parent="g5N9hE3hsBz0X4arDoTH-22" source="g5N9hE3hsBz0X4arDoTH-24" target="PTeG42SvYrZNoQo3uG_o-4">
          <mxGeometry relative="1" as="geometry" />
        </mxCell>
        <mxCell id="g5N9hE3hsBz0X4arDoTH-34" style="edgeStyle=orthogonalEdgeStyle;rounded=0;orthogonalLoop=1;jettySize=auto;html=1;" edge="1" parent="g5N9hE3hsBz0X4arDoTH-1" source="g5N9hE3hsBz0X4arDoTH-9" target="g5N9hE3hsBz0X4arDoTH-23">
          <mxGeometry relative="1" as="geometry" />
        </mxCell>
        <mxCell id="g5N9hE3hsBz0X4arDoTH-35" value="eReferral" style="edgeLabel;html=1;align=center;verticalAlign=middle;resizable=0;points=[];" connectable="0" vertex="1" parent="g5N9hE3hsBz0X4arDoTH-34">
          <mxGeometry x="-0.1778" relative="1" as="geometry">
            <mxPoint as="offset" />
          </mxGeometry>
        </mxCell>
        <mxCell id="g5N9hE3hsBz0X4arDoTH-38" style="edgeStyle=orthogonalEdgeStyle;rounded=0;orthogonalLoop=1;jettySize=auto;html=1;entryX=0.5;entryY=1;entryDx=0;entryDy=0;entryPerimeter=0;exitX=0.5;exitY=0;exitDx=0;exitDy=0;exitPerimeter=0;" edge="1" parent="g5N9hE3hsBz0X4arDoTH-1" source="g5N9hE3hsBz0X4arDoTH-29" target="g5N9hE3hsBz0X4arDoTH-19">
          <mxGeometry relative="1" as="geometry">
            <mxPoint x="1090" y="470" as="sourcePoint" />
            <mxPoint x="1190" y="220" as="targetPoint" />
          </mxGeometry>
        </mxCell>
        <mxCell id="g5N9hE3hsBz0X4arDoTH-39" value="eDischarge" style="edgeLabel;html=1;align=center;verticalAlign=middle;resizable=0;points=[];" connectable="0" vertex="1" parent="g5N9hE3hsBz0X4arDoTH-38">
          <mxGeometry x="0.0381" y="1" relative="1" as="geometry">
            <mxPoint as="offset" />
          </mxGeometry>
        </mxCell>
      </root>
    </mxGraphModel>
  </diagram>
</mxfile>
